# xmcd
#
# Track frame offsets:
#	150
#	15550
#	29522
#	41867
#	54150
#	68230
#	77979
#	90587
#	103017
#	116600
#	129547
#	140250
#	152660
#	165707
#	177662
#	200792
#
# Disc length: 2689 seconds
#
# Revision: 1
# Processed by: cddbd v1.5.1PL2 Copyright (c) Steve Scherf et al.
# Submitted via: audiograbber 1.83.01
#
DISCID=de0a7f10
DTITLE=Various Artist - Sc8392
DYEAR=1900
DGENRE=Country
TTITLE0=James, Sonny - Since I Met You Baby
TTITLE1=Pierce, Webb - Love Love Love
TTITLE2=Cash, Johnny - Get Rhythm
TTITLE3=Jackson, Stonewall - Waterloo
TTITLE4=Twitty, Conway - Next In Line
TTITLE5=Pierce, Webb - I Ain't Never
TTITLE6=Robbins, Marty - Story Of My Life, The
TTITLE7=Price, Ray - My Shoes Keep Walking Back To You
TTITLE8=Tubb, Ernest - Waltz Across Texas
TTITLE9=Ford, Tennessee Ernie - Shot Gun Boogie
TTITLE10=Reeves, Jim - Billy Bayou
TTITLE11=Husky, Ferlin - Gone
TTITLE12=Cargill, Henson - Skip A Rope
TTITLE13=Williams, Hank - Why Don't You Love Me
TTITLE14=Owens, Buck - Waitin' In The Welfare Line
TTITLE15=Artist - Data Track
EXTD=
EXTT0=
EXTT1=
EXTT2=
EXTT3=
EXTT4=
EXTT5=
EXTT6=
EXTT7=
EXTT8=
EXTT9=
EXTT10=
EXTT11=
EXTT12=
EXTT13=
EXTT14=
EXTT15=
PLAYORDER=
